<svg width="140" height="140" viewBox="0 0 140 140" fill="none" xmlns="http://www.w3.org/2000/svg">
<g clip-path="url(#clip0_254_798)">
<path d="M134.167 128.333H29.1667C24.5254 128.333 20.0742 126.49 16.7923 123.208C13.5104 119.926 11.6667 115.475 11.6667 110.833V5.83333C11.6667 4.28624 11.0521 2.80251 9.95812 1.70854C8.86416 0.614582 7.38043 0 5.83333 0C4.28624 0 2.80251 0.614582 1.70854 1.70854C0.614582 2.80251 0 4.28624 0 5.83333L0 110.833C0.0092625 118.566 3.08514 125.979 8.55295 131.447C14.0208 136.915 21.434 139.991 29.1667 140H134.167C135.714 140 137.198 139.385 138.291 138.291C139.385 137.198 140 135.714 140 134.167C140 132.62 139.385 131.136 138.291 130.042C137.198 128.948 135.714 128.333 134.167 128.333Z" fill="#294B69"/>
<path d="M35.0001 116.667C36.5472 116.667 38.0309 116.052 39.1249 114.958C40.2188 113.864 40.8334 112.38 40.8334 110.833V70C40.8334 68.4529 40.2188 66.9692 39.1249 65.8752C38.0309 64.7812 36.5472 64.1667 35.0001 64.1667C33.453 64.1667 31.9693 64.7812 30.8753 65.8752C29.7813 66.9692 29.1667 68.4529 29.1667 70V110.833C29.1667 112.38 29.7813 113.864 30.8753 114.958C31.9693 116.052 33.453 116.667 35.0001 116.667Z" fill="#294B69"/>
<path d="M58.3333 58.3333V110.833C58.3333 112.38 58.9478 113.864 60.0418 114.958C61.1358 116.052 62.6195 116.667 64.1666 116.667C65.7137 116.667 67.1974 116.052 68.2914 114.958C69.3853 113.864 69.9999 112.38 69.9999 110.833V58.3333C69.9999 56.7862 69.3853 55.3025 68.2914 54.2085C67.1974 53.1146 65.7137 52.5 64.1666 52.5C62.6195 52.5 61.1358 53.1146 60.0418 54.2085C58.9478 55.3025 58.3333 56.7862 58.3333 58.3333Z" fill="#294B69"/>
<path d="M87.5 75.8333V110.833C87.5 112.38 88.1146 113.864 89.2085 114.958C90.3025 116.052 91.7862 116.667 93.3333 116.667C94.8804 116.667 96.3642 116.052 97.4581 114.958C98.5521 113.864 99.1667 112.38 99.1667 110.833V75.8333C99.1667 74.2862 98.5521 72.8025 97.4581 71.7085C96.3642 70.6146 94.8804 70 93.3333 70C91.7862 70 90.3025 70.6146 89.2085 71.7085C88.1146 72.8025 87.5 74.2862 87.5 75.8333Z" fill="#294B69"/>
<path d="M116.667 52.5V110.833C116.667 112.38 117.281 113.864 118.375 114.958C119.469 116.052 120.953 116.667 122.5 116.667C124.047 116.667 125.531 116.052 126.625 114.958C127.719 113.864 128.333 112.38 128.333 110.833V52.5C128.333 50.9529 127.719 49.4692 126.625 48.3752C125.531 47.2812 124.047 46.6667 122.5 46.6667C120.953 46.6667 119.469 47.2812 118.375 48.3752C117.281 49.4692 116.667 50.9529 116.667 52.5Z" fill="#294B69"/>
<path d="M35.0001 52.5C36.547 52.4997 38.0305 51.8849 39.1242 50.7908L60.0426 29.8725C61.1544 28.8133 62.6311 28.2225 64.1667 28.2225C65.7023 28.2225 67.1791 28.8133 68.2909 29.8725L80.9609 42.5425C84.2426 45.8232 88.693 47.6663 93.3334 47.6663C97.9738 47.6663 102.424 45.8232 105.706 42.5425L138.291 9.9575C139.353 8.85732 139.941 7.38381 139.928 5.85433C139.915 4.32485 139.301 2.86178 138.22 1.78023C137.138 0.698682 135.675 0.0851971 134.146 0.0719063C132.616 0.0586155 131.143 0.646583 130.043 1.70917L97.4576 34.2883C96.3637 35.3819 94.8802 35.9963 93.3334 35.9963C91.7866 35.9963 90.3031 35.3819 89.2092 34.2883L76.5392 21.6242C73.2575 18.3434 68.8071 16.5004 64.1667 16.5004C59.5264 16.5004 55.076 18.3434 51.7942 21.6242L30.8759 42.5425C30.0603 43.3583 29.505 44.3976 29.28 45.529C29.055 46.6604 29.1705 47.8331 29.6119 48.8988C30.0533 49.9646 30.8008 50.8755 31.7599 51.5165C32.7189 52.1575 33.8465 52.4998 35.0001 52.5Z" fill="#294B69"/>
</g>
<defs>
<clipPath id="clip0_254_798">
<rect width="140" height="140" fill="white"/>
</clipPath>
</defs>
</svg>
