<svg width="187" height="187" viewBox="0 0 187 187" fill="none" xmlns="http://www.w3.org/2000/svg">
<g clip-path="url(#clip0_51_283)">
<path d="M13.9884 0.547882C7.34111 2.33752 2.30088 7.45081 0.547754 14.1346C-0.292285 17.2756 -0.292285 148.176 0.547754 151.317C1.20518 153.873 2.3374 155.699 4.45576 157.635C6.57412 159.607 9.3499 160.63 13.477 160.922L16.8007 161.178V170.418V179.659L9.45947 179.768L2.11826 179.878L1.05908 181.083C-0.328809 182.617 -0.328809 184.078 1.05908 185.612L2.11826 186.817L93.2808 186.927L184.443 187L185.612 185.941C186.598 185.064 186.817 184.626 186.817 183.348C186.817 182.069 186.598 181.631 185.612 180.754L184.443 179.695H177.321H170.199V170.418V161.178L173.523 160.922C177.65 160.63 180.426 159.607 182.544 157.635C184.662 155.699 185.795 153.873 186.452 151.317C187.292 148.176 187.292 17.2756 186.452 14.1346C184.699 7.37776 179.622 2.30101 172.865 0.547882C169.797 -0.25563 16.9468 -0.219116 13.9884 0.547882ZM173.158 8.25433C175.349 9.27698 177.723 11.651 178.709 13.8424C179.366 15.2668 179.513 16.3625 179.622 20.8914L179.768 26.2969H93.5364H7.30459V21.6219C7.30459 18.5905 7.48721 16.2895 7.81592 15.1938C8.8751 11.7606 11.3587 9.13089 14.7919 7.96214C16.5085 7.37776 21.3661 7.34125 94.0477 7.41429L171.477 7.48734L173.158 8.25433ZM179.695 91.3817C179.695 145.692 179.659 149.271 179.038 150.477C177.979 152.631 176.408 153.398 173.084 153.398H170.199V124.983C170.199 97.5176 170.163 96.568 169.469 95.4358C168.994 94.6688 168.336 94.1574 167.387 93.9018C165.524 93.3904 144.194 93.3904 142.332 93.9018C141.382 94.1574 140.725 94.6688 140.25 95.4358C139.556 96.5315 139.519 97.335 139.519 106.721V116.875L140.542 117.971C141.163 118.665 142.003 119.176 142.843 119.286C143.975 119.468 144.377 119.322 145.4 118.409L146.641 117.313L146.751 109.242L146.861 101.17H154.896H162.894V140.433V179.695H154.859H146.824L146.751 159.242L146.641 138.789L145.655 137.839C144.304 136.488 142.04 136.488 140.688 137.839L139.702 138.789L139.592 159.242L139.519 179.695H134.406H129.293L129.22 155.919L129.11 132.142L127.905 131.083L126.7 129.987L113.734 130.096L100.732 130.206L99.6724 131.411L98.6132 132.58V156.138V179.695H93.4999H88.3866V141.017C88.3866 117.313 88.2405 101.973 88.0214 101.389C87.8388 100.878 87.2544 100.184 86.67 99.8186C85.7569 99.2342 84.5882 99.1611 73.0468 99.1611C61.5054 99.1611 60.3366 99.2342 59.4235 99.8186C58.8392 100.184 58.2548 100.878 58.0722 101.389C57.853 101.973 57.7069 117.313 57.7069 141.017V179.695H52.5937H47.5169L47.4073 160.667L47.2978 141.638L46.0925 140.579L44.8872 139.483L31.9579 139.593L18.9921 139.702L18.006 140.725C16.9833 141.711 16.9833 141.747 16.8737 147.555L16.7642 153.398H13.9153C10.5917 153.398 9.02119 152.631 7.96201 150.477C7.34111 149.271 7.30459 145.692 7.30459 91.3817V33.6016H93.4999H179.695V91.3817ZM81.0819 142.989V179.695H73.0468H65.0116V142.989V106.283H73.0468H81.0819V142.989ZM121.988 158.512V179.695H113.953H105.918V158.512V137.328H113.953H121.988V158.512ZM40.1757 163.26V179.695H32.1405H24.1054V163.26V146.824H32.1405H40.1757V163.26Z" fill="#294B69"/>
<path d="M22.0965 13.4771C19.759 14.4633 19.1381 17.4947 20.9278 19.2478C23.1192 21.4758 26.8446 19.9418 26.8446 16.8008C26.8446 14.3902 24.2149 12.564 22.0965 13.4771Z" fill="#294B69"/>
<path d="M36.7059 13.4771C34.3684 14.4633 33.7475 17.4947 35.5372 19.2478C37.7286 21.4758 41.4539 19.9418 41.4539 16.8008C41.4539 14.3902 38.8243 12.564 36.7059 13.4771Z" fill="#294B69"/>
<path d="M51.3153 13.4771C48.9778 14.4633 48.3569 17.4947 50.1465 19.2478C52.3379 21.4758 56.0633 19.9418 56.0633 16.8008C56.0633 14.3902 53.4336 12.564 51.3153 13.4771Z" fill="#294B69"/>
<path d="M79.8036 13.4771C77.4661 14.4633 76.8452 17.4947 78.6348 19.2479L79.6209 20.2705L122.171 20.3801L164.684 20.4531L165.889 19.3939C166.875 18.5174 167.095 18.0791 167.095 16.8008C167.095 15.5225 166.875 15.0842 165.889 14.2076L164.721 13.1484L122.609 13.185C99.4897 13.185 80.2053 13.3311 79.8036 13.4771Z" fill="#294B69"/>
<path d="M19.1748 46.3482C18.006 46.8596 17.166 48.0283 16.9103 49.4162C16.7277 50.585 16.8738 50.9137 18.006 52.0459L19.2844 53.3242H29.2187H39.1531L40.4314 52.0459C41.5637 50.9137 41.7098 50.585 41.5271 49.4162C41.381 48.6857 40.8697 47.6631 40.3584 47.1518L39.4453 46.2021L29.657 46.1291C24.2881 46.0926 19.5766 46.2021 19.1748 46.3482Z" fill="#294B69"/>
<path d="M50.2197 46.3482C48.0283 47.2613 47.3343 50.3658 48.9413 52.0459C51.1693 54.4199 55.1503 52.8859 55.1503 49.6719C55.1503 47.1152 52.5937 45.3986 50.2197 46.3482Z" fill="#294B69"/>
<path d="M67.8238 50.0736C64.4271 50.8772 60.8113 53.799 59.2408 57.0861C57.5973 60.4098 57.5607 65.1943 59.0947 68.3354L59.7887 69.6867L48.9777 80.4611L38.1668 91.199L36.3771 90.5051C35.1719 90.0303 33.6379 89.8111 31.8848 89.8111C24.5436 89.8111 18.9189 95.4357 18.9189 102.777C18.9189 106.612 20.0146 109.205 22.7904 111.981C25.7488 114.939 28.1959 115.889 32.323 115.706C39.3721 115.414 44.5219 110.374 44.8506 103.361C44.9602 101.243 44.8141 100.111 44.2297 98.4307L43.4627 96.2393L54.1275 85.5379C64.2445 75.4209 64.902 74.8365 65.9246 75.0557C71.6588 76.1148 72.0605 76.1148 74.8363 75.2748L77.5391 74.4348L89.957 86.8527L102.375 99.2707L101.608 101.06C98.7957 107.635 101.754 115.158 108.401 118.263C110.154 119.066 110.995 119.249 113.588 119.213C116.217 119.213 117.057 119.066 118.92 118.19C124.983 115.451 128.087 108.438 126.006 102.302L125.239 99.9647L137.584 87.5832L149.929 75.2018L151.389 75.4939C157.964 76.8088 163.844 74.0695 166.656 68.3354C167.715 66.1805 167.825 65.5961 167.825 62.8203C167.788 60.2272 167.642 59.3506 166.766 57.4879C165.524 54.6756 163.004 52.2285 160.155 50.8772C158.292 50.0006 157.489 49.8545 154.859 49.8545C152.229 49.8545 151.426 50.0006 149.563 50.8772C146.678 52.2285 144.194 54.6756 142.953 57.4879C142.076 59.3506 141.93 60.2272 141.893 62.8203C141.893 65.5961 142.039 66.217 143.026 68.1893L144.121 70.4537L132.032 82.543L119.906 94.6322L117.569 93.8652C114.976 92.9522 111.506 93.0252 109.132 94.0113L107.89 94.5592L95.2164 81.8856L82.5793 69.2119L83.2732 67.2031C84.6977 63.1125 83.9307 58.1453 81.4105 54.8947C78.1965 50.8041 72.791 48.9049 67.8238 50.0736ZM73.5945 57.707C76.4799 59.0949 77.6486 63.149 75.8955 65.7422C73.9963 68.518 71.3301 69.3215 68.5178 67.9701C66.3629 66.9109 65.3037 65.1943 65.3037 62.8203C65.3037 58.401 69.577 55.7713 73.5945 57.707ZM157.16 57.4879C160.959 59.0584 161.835 63.8795 158.877 66.8379C157.306 68.4084 155.699 68.8832 153.544 68.518C152.741 68.3354 151.718 67.7145 150.842 66.8379C146.313 62.309 151.243 55.0043 157.16 57.4879ZM35.391 98.175C38.4225 100.403 38.2764 105.443 35.0988 107.598C31.41 110.118 26.1871 107.306 26.1871 102.813C26.1871 98.1385 31.6291 95.3992 35.391 98.175ZM116.802 101.426C118.664 102.813 119.249 103.982 119.249 106.283C119.249 108.584 118.664 109.753 116.729 111.177C115.268 112.31 111.981 112.237 110.374 111.104C108.949 110.082 107.744 107.854 107.744 106.283C107.744 104.128 109.57 101.572 111.762 100.695C112.784 100.257 115.816 100.695 116.802 101.426Z" fill="#294B69"/>
<path d="M19.1748 63.8795C18.006 64.3908 17.166 65.5596 16.9103 66.9475C16.7277 68.1162 16.8738 68.4449 18.006 69.5771L19.2844 70.8555H29.2187H39.1531L40.4314 69.5771C41.5637 68.4449 41.7098 68.1162 41.5271 66.9475C41.381 66.217 40.8697 65.1943 40.3584 64.683L39.4453 63.7334L29.657 63.6604C24.2881 63.6238 19.5766 63.7334 19.1748 63.8795Z" fill="#294B69"/>
<path d="M140.871 126.152C137.584 129.22 141.674 134.297 145.254 131.63C147.993 129.585 146.568 125.275 143.172 125.275C142.259 125.275 141.528 125.568 140.871 126.152Z" fill="#294B69"/>
</g>
<defs>
<clipPath id="clip0_51_283">
<rect width="187" height="187" fill="white"/>
</clipPath>
</defs>
</svg>
