<svg width="24" height="24" viewBox="0 0 24 24" fill="none" xmlns="http://www.w3.org/2000/svg">
<path d="M11 0H5C3.346 0 2 1.346 2 3H1C0.448 3 0 3.447 0 4C0 4.553 0.448 5 1 5H2V7H1C0.448 7 0 7.447 0 8C0 8.553 0.448 9 1 9H2V11H1C0.448 11 0 11.447 0 12C0 12.553 0.448 13 1 13H2V15H1C0.448 15 0 15.447 0 16C0 16.553 0.448 17 1 17H2V19H1C0.448 19 0 19.447 0 20C0 20.553 0.448 21 1 21H2C2 22.654 3.346 24 5 24H11C13.757 24 16 21.757 16 19V5C16 2.243 13.757 0 11 0ZM14 19C14 20.654 12.654 22 11 22H5C4.449 22 4 21.552 4 21V3C4 2.448 4.449 2 5 2H11C12.654 2 14 3.346 14 5V19ZM12 7C12 7.553 11.552 8 11 8H7C6.448 8 6 7.553 6 7C6 6.447 6.448 6 7 6H11C11.552 6 12 6.447 12 7ZM21 0C19.346 0 18 1.346 18 3V19.758C18 20.812 18.427 21.842 19.172 22.586L20.293 23.707C20.488 23.902 20.744 24 21 24C21.256 24 21.512 23.902 21.707 23.707L22.828 22.586C23.573 21.842 24 20.812 24 19.758V3C24 1.346 22.654 0 21 0ZM22 19.758C22 20.284 21.787 20.8 21.414 21.172L21 21.586L20.586 21.172C20.213 20.8 20 20.284 20 19.758V3C20 2.448 20.449 2 21 2C21.551 2 22 2.448 22 3V19.758Z" fill="#959895"/>
</svg>
