<svg width="192" height="192" viewBox="0 0 192 192" fill="none" xmlns="http://www.w3.org/2000/svg">
<g clip-path="url(#clip0_256_817)">
<path d="M88 0H40C26.768 0 16 10.768 16 24H8C3.584 24 0 27.576 0 32C0 36.424 3.584 40 8 40H16V56H8C3.584 56 0 59.576 0 64C0 68.424 3.584 72 8 72H16V88H8C3.584 88 0 91.576 0 96C0 100.424 3.584 104 8 104H16V120H8C3.584 120 0 123.576 0 128C0 132.424 3.584 136 8 136H16V152H8C3.584 152 0 155.576 0 160C0 164.424 3.584 168 8 168H16C16 181.232 26.768 192 40 192H88C110.056 192 128 174.056 128 152V40C128 17.944 110.056 0 88 0ZM112 152C112 165.232 101.232 176 88 176H40C35.592 176 32 172.416 32 168V24C32 19.584 35.592 16 40 16H88C101.232 16 112 26.768 112 40V152ZM96 56C96 60.424 92.416 64 88 64H56C51.584 64 48 60.424 48 56C48 51.576 51.584 48 56 48H88C92.416 48 96 51.576 96 56ZM168 0C154.768 0 144 10.768 144 24V158.064C144 166.496 147.416 174.736 153.376 180.688L162.344 189.656C163.904 191.216 165.952 192 168 192C170.048 192 172.096 191.216 173.656 189.656L182.624 180.688C188.584 174.736 192 166.496 192 158.064V24C192 10.768 181.232 0 168 0ZM176 158.064C176 162.272 174.296 166.4 171.312 169.376L168 172.688L164.688 169.376C161.704 166.4 160 162.272 160 158.064V24C160 19.584 163.592 16 168 16C172.408 16 176 19.584 176 24V158.064Z" fill="#294B69"/>
</g>
<defs>
<clipPath id="clip0_256_817">
<rect width="192" height="192" fill="white"/>
</clipPath>
</defs>
</svg>
