<svg width="181" height="147" viewBox="0 0 181 147" fill="none" xmlns="http://www.w3.org/2000/svg">
<path d="M18.0293 1.26953C14.1855 2.31055 11.0225 4.95312 9.26074 8.63672L8.21973 10.8389L8.09961 25.1328L7.97949 39.4668H5.57715C2.69434 39.4668 1.89355 39.8271 1.21289 41.4688C0.8125 42.3896 0.8125 42.9102 1.17285 43.8311C1.81348 45.3125 3.09473 45.873 5.81738 45.873H8.01953V58.085V70.2969H5.41699C3.13477 70.2969 2.6543 70.417 1.81348 71.2979C0.492187 72.5791 0.492187 74.4209 1.81348 75.7021C2.6543 76.583 3.13477 76.7031 5.41699 76.7031H8.01953V88.915V101.127H5.81738C3.09473 101.127 1.81348 101.688 1.17285 103.169C0.8125 104.09 0.8125 104.61 1.21289 105.531C1.89355 107.173 2.69434 107.533 5.57715 107.533H8.01953V121.347C8.01953 137.843 8.05957 138.163 12.1836 142.207C16.5879 146.531 11.4229 146.171 67.0371 146.291C109.799 146.371 115.725 146.331 117.887 145.771C121.891 144.729 124.813 142.407 126.855 138.563L127.937 136.562L128.057 119.825L128.177 103.129L127.176 102.128C125.895 100.847 124.493 100.847 123.052 102.088L121.931 103.049L121.73 119.225L121.53 135.44L120.409 136.882C118.047 140.005 122.531 139.765 68.0381 139.765H19.3906L17.709 138.644C14.4658 136.521 14.4258 136.241 14.4258 120.946V107.533H18.1494C21.6729 107.533 21.9531 107.613 22.874 108.574C24.2354 110.056 25.7568 110.736 27.6387 110.736C33.3242 110.736 36.127 103.89 32.083 99.8857C29.5605 97.3633 25.9971 97.2832 23.2744 99.7656C21.7529 101.127 21.6729 101.127 18.0693 101.127H14.4258V88.915V76.7031H18.1494C21.6729 76.7031 21.9531 76.7832 22.874 77.7441C25.8369 80.9473 30.3213 80.5869 33.0039 76.9834C33.6445 76.1426 33.8447 75.2617 33.8447 73.5C33.8447 71.7383 33.6445 70.8574 33.0039 70.0166C30.3213 66.4131 25.8369 66.0527 22.874 69.2559C21.9531 70.2168 21.6729 70.2969 18.1494 70.2969H14.4258V58.085V45.873H18.0693C21.6729 45.873 21.7529 45.873 23.2744 47.2344C25.9971 49.7168 29.5605 49.6367 32.083 47.1143C36.127 43.1104 33.3242 36.2637 27.6387 36.2637C25.7568 36.2637 24.2354 36.9443 22.874 38.4258C21.9531 39.3867 21.6729 39.4668 18.1494 39.4668H14.4258V26.0537C14.4258 10.7588 14.4658 10.4785 17.709 8.35645L19.3906 7.23535H68.0381C122.531 7.23535 118.047 6.99512 120.409 10.1182L121.53 11.5596L121.73 24.5723L121.931 37.5449L123.092 38.5459C124.493 39.7471 126.295 39.5869 127.456 38.1855C128.137 37.3848 128.177 36.3438 128.057 23.8916L127.937 10.4385L126.855 8.43652C124.813 4.63281 121.931 2.27051 117.927 1.22949C114.443 0.348633 21.4326 0.348633 18.0293 1.26953Z" fill="#294B69"/>
<path d="M163.211 17.5254C162.21 17.8057 160.688 18.8867 158.807 20.6484L155.964 23.3711L153.962 22.9307C152.36 22.6104 151.479 22.6504 149.558 23.2109L147.155 23.8916L116.886 54.2012L86.6562 84.5107L80.7304 95.4414C77.4873 101.447 74.7246 106.973 74.6045 107.693C74.3642 109.335 75.0449 111.577 76.1259 112.578C76.8867 113.259 76.8867 113.299 75.6054 114.62L74.3242 115.941H60.0302C46.417 115.941 45.7363 115.981 44.7353 116.742C44.2148 117.183 43.6142 117.983 43.4941 118.544C43.2138 119.705 44.0947 121.707 45.0556 122.107C45.416 122.228 52.583 122.348 60.9511 122.348C75.6855 122.348 76.2461 122.308 77.5273 121.507C78.2881 121.066 79.4091 120.065 80.0498 119.265L81.2109 117.863L82.7324 118.984C83.8935 119.865 84.6543 120.146 86.0556 120.146C87.6572 120.146 89.2988 119.385 98.9082 114.18L109.919 108.214L119.248 98.9648C127.376 90.877 128.537 89.5557 128.537 88.4746C128.537 86.833 127.096 85.5117 125.294 85.5117C124.053 85.5117 123.252 86.1924 116.445 92.999L108.918 100.526L101.631 93.1992L94.3037 85.9121L110.319 69.8965L126.335 53.8809L133.422 60.9678C137.346 64.8916 140.549 68.2549 140.549 68.4551C140.549 68.6953 138.467 70.9375 135.944 73.5C131.3 78.2246 130.859 78.9854 131.58 80.9072C131.86 81.6279 133.782 82.709 134.823 82.709C135.224 82.709 143.312 74.9414 153.441 64.8115L171.339 46.9141L172.38 47.875C173.461 48.916 174.021 50.8779 173.581 52.3594C173.421 52.8398 166.574 60.0469 158.326 68.2949C141.87 84.8311 142.19 84.4307 144.513 86.7529C145.834 88.0742 146.515 88.1543 148.076 87.3535C149.998 86.3125 178.025 57.8447 178.986 55.9229C180.187 53.4805 180.428 50.5176 179.627 47.7148C179.026 45.7529 178.426 44.8721 175.503 41.8291L172.06 38.2656L174.142 36.0635C175.303 34.8623 176.504 33.1807 176.864 32.3799C177.625 30.498 177.705 27.375 176.984 25.2529C176.344 23.3311 172.58 19.2871 170.418 18.166C168.536 17.2051 165.333 16.9248 163.211 17.5254ZM168.216 24.3721C170.138 25.6533 171.499 27.7754 171.179 29.0566C171.059 29.6172 170.138 30.8584 169.137 31.8594L167.375 33.6611L164.172 30.458L160.929 27.2549L162.931 25.333C165.173 23.1709 166.174 23.0107 168.216 24.3721ZM160.248 35.7432L166.975 42.4697L160.368 49.0762L153.762 55.6826L146.435 48.3555L139.147 41.0684L145.193 35.0625C150.158 30.1377 151.399 29.0566 152.36 29.0566C153.321 29.0566 154.683 30.2178 160.248 35.7432ZM141.95 53.0801L149.157 60.2871L147.235 62.1689L145.353 64.0908L138.066 56.8037L130.739 49.4766L132.541 47.6748C133.502 46.6738 134.423 45.873 134.543 45.873C134.663 45.873 137.986 49.1162 141.95 53.0801ZM97.1064 97.9238C100.59 101.407 103.393 104.37 103.312 104.45C103.192 104.53 99.3486 106.652 94.7841 109.135L86.416 113.659L83.8535 111.097C82.4521 109.695 81.291 108.414 81.291 108.254C81.291 107.733 90.2197 91.5176 90.4599 91.5176C90.6201 91.5176 93.583 94.4004 97.1064 97.9238Z" fill="#294B69"/>
<path d="M44.415 18.6064C43.1738 19.6074 43.1338 21.9297 44.375 23.1709C45.2559 24.0518 45.416 24.0518 57.3076 24.0518H69.3594L70.3203 22.9307C71.4814 21.5693 71.5615 20.2881 70.4404 18.8867L69.6396 17.8457H57.4678C46.2168 17.8457 45.2959 17.8857 44.415 18.6064Z" fill="#294B69"/>
<path d="M44.9355 33.3408C44.0947 33.6611 43.2138 35.7832 43.4941 36.8643C43.6142 37.4248 44.2148 38.2256 44.7353 38.666C45.7363 39.4268 46.457 39.4668 71.9619 39.4668C94.1435 39.4668 98.3076 39.3867 99.2685 38.8662C101.19 37.9053 101.511 35.623 99.9092 34.0615L98.9482 33.0605L72.2021 33.1006C57.5078 33.1006 45.2158 33.2207 44.9355 33.3408Z" fill="#294B69"/>
<path d="M45.2558 56.3633C43.2139 57.4443 42.8135 60.127 44.5351 61.5684C45.2158 62.209 46.2168 62.2891 51.4619 62.2891H57.6279L58.4287 61.248C59.5498 59.8467 59.4697 58.5654 58.3086 57.2041C57.3476 56.083 57.3076 56.083 51.7822 55.9629C47.8584 55.8828 45.9765 56.0029 45.2558 56.3633Z" fill="#294B69"/>
<path d="M67.8379 56.2832C66.7168 56.7236 65.6758 58.2051 65.6758 59.3262C65.6758 59.8066 66.0361 60.6475 66.5166 61.248L67.3174 62.2891H83.2529H99.1885L100.029 61.3682C101.631 59.6465 101.03 57.084 98.8682 56.3232C97.3066 55.8027 69.1191 55.7627 67.8379 56.2832Z" fill="#294B69"/>
<path d="M45.3759 76.3027C44.0146 76.8633 43.1338 78.4648 43.4541 79.9062C43.9746 82.3486 43.7343 82.3086 62.5927 82.3086H79.7295L80.6904 81.3076C82.0117 79.9863 81.9716 78.5049 80.5302 77.0635L79.3691 75.9023L62.7929 75.9424C53.7041 75.9424 45.8564 76.1025 45.3759 76.3027Z" fill="#294B69"/>
<path d="M44.7353 96.7227C44.2148 97.1631 43.6142 97.9639 43.4941 98.5244C43.2138 99.6855 44.0947 101.688 45.0556 102.088C45.416 102.208 49.7802 102.328 54.705 102.328H63.7138L64.6748 101.327C65.9961 100.006 65.956 98.5244 64.5146 97.083L63.3535 95.9219H54.5449C46.3769 95.9219 45.6963 95.9619 44.7353 96.7227Z" fill="#294B69"/>
</svg>
