<svg width="24" height="24" viewBox="0 0 24 24" fill="none" xmlns="http://www.w3.org/2000/svg">
<path d="M2 12H22" stroke="#959895" stroke-width="2" stroke-linecap="round" stroke-linejoin="round"/>
<path d="M20 12V20C20 20.5304 19.7893 21.0391 19.4142 21.4142C19.0391 21.7893 18.5304 22 18 22H6C5.46957 22 4.96086 21.7893 4.58579 21.4142C4.21071 21.0391 4 20.5304 4 20V12" stroke="#959895" stroke-width="2" stroke-linecap="round" stroke-linejoin="round"/>
<path d="M4 8L20 4" stroke="#959895" stroke-width="2" stroke-linecap="round" stroke-linejoin="round"/>
<path d="M8.86 6.78L8.41 4.97C8.34553 4.71523 8.33189 4.45026 8.36988 4.19022C8.40787 3.93018 8.49674 3.68017 8.6314 3.4545C8.76606 3.22882 8.94388 3.0319 9.15469 2.87498C9.3655 2.71807 9.60517 2.60424 9.86 2.54L11.8 2.06C12.0554 1.99568 12.3211 1.98246 12.5816 2.02109C12.8422 2.05972 13.0926 2.14945 13.3184 2.28511C13.5441 2.42077 13.7409 2.59969 13.8974 2.81161C14.0538 3.02353 14.1669 3.26427 14.23 3.52L14.68 5.32" stroke="#959895" stroke-width="2" stroke-linecap="round" stroke-linejoin="round"/>
</svg>
