<svg width="20" height="20" viewBox="0 0 20 20" fill="none" xmlns="http://www.w3.org/2000/svg">
<path opacity="0.4" d="M14.0737 0H17.4596C18.8619 0 19.9982 1.14585 19.9982 2.55996V5.97452C19.9982 7.38864 18.8619 8.53449 17.4596 8.53449H14.0737C12.6714 8.53449 11.5352 7.38864 11.5352 5.97452V2.55996C11.5352 1.14585 12.6714 0 14.0737 0Z" fill="#B3B5B3"/>
<path fill-rule="evenodd" clip-rule="evenodd" d="M2.53852 0H5.92449C7.32676 0 8.46301 1.14585 8.46301 2.55996V5.97452C8.46301 7.38864 7.32676 8.53449 5.92449 8.53449H2.53852C1.13626 8.53449 0 7.38864 0 5.97452V2.55996C0 1.14585 1.13626 0 2.53852 0ZM2.53852 11.4655H5.92449C7.32676 11.4655 8.46301 12.6114 8.46301 14.0255V17.44C8.46301 18.8532 7.32676 20 5.92449 20H2.53852C1.13626 20 0 18.8532 0 17.44V14.0255C0 12.6114 1.13626 11.4655 2.53852 11.4655ZM17.4596 11.4648H14.0737C12.6714 11.4648 11.5352 12.6107 11.5352 14.0248V17.4394C11.5352 18.8525 12.6714 19.9993 14.0737 19.9993H17.4596C18.8619 19.9993 19.9982 18.8525 19.9982 17.4394V14.0248C19.9982 12.6107 18.8619 11.4648 17.4596 11.4648Z" fill="#B3B5B3"/>
</svg>
