<svg width="34" height="34" viewBox="0 0 34 34" fill="none" xmlns="http://www.w3.org/2000/svg">
<path d="M15.1647 1.39539H12.017C4.14771 1.39539 1 4.5431 1 12.4124V21.8555C1 29.7248 4.14771 32.8725 12.017 32.8725H21.4601C29.3294 32.8725 32.4771 29.7248 32.4771 21.8555V18.7078" stroke="#294B69" stroke-linecap="round" stroke-linejoin="round"/>
<path d="M23.0969 3.00073L10.6949 15.4027C10.2228 15.8749 9.75061 16.8034 9.65618 17.4802L8.97942 22.2175C8.7276 23.933 9.93947 25.1291 11.655 24.8931L16.3923 24.2163C17.0533 24.1219 17.9819 23.6497 18.4698 23.1775L30.8717 10.7756C33.0122 8.63513 34.0194 6.14844 30.8717 3.00073C27.724 -0.146979 25.2373 0.860288 23.0969 3.00073Z" stroke="#294B69" stroke-miterlimit="10" stroke-linecap="round" stroke-linejoin="round"/>
<path d="M21.3184 4.77905C22.3728 8.54057 25.316 11.4837 29.0932 12.5539" stroke="#294B69" stroke-miterlimit="20" stroke-linecap="round" stroke-linejoin="round"/>
</svg>
