<svg width="192" height="192" viewBox="0 0 192 192" fill="none" xmlns="http://www.w3.org/2000/svg">
<g clip-path="url(#clip0_256_811)">
<path d="M24 176H80V192H24C10.768 192 0 181.232 0 168V16H41.368C44.672 6.688 53.568 0 64 0H80C90.432 0 99.328 6.688 102.632 16H144V88H128V32H88V24C88 19.592 84.408 16 80 16H64C59.592 16 56 19.592 56 24V32H16V168C16 172.416 19.592 176 24 176ZM49.32 70.952L39.392 61.416L28.304 72.952L39.904 84.096C42.512 86.704 45.936 88 49.352 88C52.752 88 56.136 86.712 58.696 84.152L80.768 62.536L69.576 51.104L49.312 70.944L49.32 70.952ZM49.32 118.952L39.392 109.416L28.304 120.944L39.896 132.088C42.416 134.608 45.768 136 49.328 136C52.888 136 56.248 134.608 58.696 132.16L80.768 110.544L69.576 99.112L49.312 118.96L49.32 118.952ZM192 128V192H96V128C96 114.768 106.768 104 120 104H168C181.232 104 192 114.768 192 128ZM176 128C176 123.584 172.416 120 168 120H120C115.584 120 112 123.584 112 128V176H176V128ZM128 152H160V136H128V152ZM112 72H92.424L76.088 88H112V72Z" fill="#294B69"/>
</g>
<defs>
<clipPath id="clip0_256_811">
<rect width="192" height="192" fill="white"/>
</clipPath>
</defs>
</svg>
