<svg width="24" height="24" viewBox="0 0 24 24" fill="none" xmlns="http://www.w3.org/2000/svg">
<g clip-path="url(#clip0_256_813)">
<path d="M3 22H10V24H3C1.346 24 0 22.654 0 21V2H5.171C5.584 0.836 6.696 0 8 0H10C11.304 0 12.416 0.836 12.829 2H18V11H16V4H11V3C11 2.449 10.551 2 10 2H8C7.449 2 7 2.449 7 3V4H2V21C2 21.552 2.449 22 3 22ZM6.165 8.869L4.924 7.677L3.538 9.119L4.988 10.512C5.314 10.838 5.742 11 6.169 11C6.594 11 7.017 10.839 7.337 10.519L10.096 7.817L8.697 6.388L6.164 8.868L6.165 8.869ZM6.165 14.869L4.924 13.677L3.538 15.118L4.987 16.511C5.302 16.826 5.721 17 6.166 17C6.611 17 7.031 16.826 7.337 16.52L10.096 13.818L8.697 12.389L6.164 14.87L6.165 14.869ZM24 16V24H12V16C12 14.346 13.346 13 15 13H21C22.654 13 24 14.346 24 16ZM22 16C22 15.448 21.552 15 21 15H15C14.448 15 14 15.448 14 16V22H22V16ZM16 19H20V17H16V19ZM14 9H11.553L9.511 11H14V9Z" fill="#959895"/>
</g>
<defs>
<clipPath id="clip0_256_813">
<rect width="24" height="24" fill="white"/>
</clipPath>
</defs>
</svg>
