<svg width="207" height="196" viewBox="0 0 207 196" fill="none" xmlns="http://www.w3.org/2000/svg">
<path d="M98.042 7.08203C96.7887 8.23047 96.7887 8.80469 98.2037 14.0492L99.3762 18.3367L81.9106 18.4516L64.4854 18.5664L61.9383 19.868C59.1082 21.3227 57.8953 22.5094 56.2781 25.4187L55.1865 27.3711L55.0653 53.4789L54.944 79.625H58.2188H61.4531L61.534 54.0148C61.6553 28.8258 61.6553 28.3664 62.5043 27.3328C62.949 26.7586 63.8385 25.9164 64.4449 25.4953C65.4961 24.7297 66.1834 24.6914 76.4526 24.5766L87.3282 24.4617V27.5625V30.625H78.6358C69.903 30.625 69.903 30.625 68.9326 31.582L67.9219 32.5008V56.082V79.625H71.1563H74.3906V58.1875V36.75H113.203H152.016V61.25V85.75H155.25H158.484V59.1445V32.5008L157.474 31.582C156.503 30.625 156.503 30.625 147.771 30.625H139.078V27.5625V24.5H149.388C160.991 24.5 161.638 24.6148 163.579 27.0266L164.751 28.443L164.872 55.5844L164.953 82.6875H168.228H171.462L171.341 55.0102L171.22 27.3711L170.128 25.4187C168.511 22.5094 167.298 21.3227 164.468 19.868L161.921 18.5664L144.496 18.4516L127.03 18.3367L128.203 14.0492C129.618 8.80469 129.618 8.23047 128.364 7.08203L127.394 6.125H113.203H99.0123L98.042 7.08203ZM120.844 16.5375C119.429 21.8203 119.429 22.3945 120.683 23.543C121.613 24.4617 121.855 24.5 127.151 24.5H132.609V27.5625V30.625H113.203H93.7969V27.5625V24.5H99.2549C104.551 24.5 104.794 24.4617 105.724 23.543C106.977 22.3945 106.977 21.8203 105.562 16.5375L104.389 12.25H113.203H122.017L120.844 16.5375Z" fill="#294B69"/>
<path d="M81.8702 43.8321C80.8595 44.7508 80.8595 44.8274 80.8595 52.0625C80.8595 61.9008 80.1722 61.25 90.5626 61.25C100.953 61.25 100.266 61.9008 100.266 52.0625C100.266 42.2242 100.953 42.875 90.5626 42.875C82.9214 42.875 82.8405 42.875 81.8702 43.8321ZM93.797 52.0625V55.125H90.5626H87.3282V52.0625V49H90.5626H93.797V52.0625Z" fill="#294B69"/>
<path d="M106.734 45.9375V49H109.969H113.203V45.9375V42.875H109.969H106.734V45.9375Z" fill="#294B69"/>
<path d="M119.672 45.9375V49H132.609H145.547V45.9375V42.875H132.609H119.672V45.9375Z" fill="#294B69"/>
<path d="M106.734 58.1875V61.25H126.141H145.547V58.1875V55.125H126.141H106.734V58.1875Z" fill="#294B69"/>
<path d="M81.8702 71.3946C80.8595 72.3133 80.8595 72.3899 80.8595 79.625C80.8595 89.4633 80.1722 88.8125 90.5626 88.8125C100.953 88.8125 100.266 89.4633 100.266 79.625C100.266 69.7867 100.953 70.4375 90.5626 70.4375C82.9214 70.4375 82.8405 70.4375 81.8702 71.3946ZM93.797 79.625V82.6875H90.5626H87.3282V79.625V76.5625H90.5626H93.797V79.625Z" fill="#294B69"/>
<path d="M106.734 73.5V76.5625H109.969H113.203V73.5V70.4375H109.969H106.734V73.5Z" fill="#294B69"/>
<path d="M119.672 73.5V76.5625H132.609H145.547V73.5V70.4375H132.609H119.672V73.5Z" fill="#294B69"/>
<path d="M106.734 85.75V88.8125H126.141H145.547V85.75V82.6875H126.141H106.734V85.75Z" fill="#294B69"/>
<path d="M140.291 97.8851L96.4248 110.327L93.5947 112.777C85.3875 119.782 84.0938 121.122 84.0938 122.423C84.0938 124.835 85.0236 125.256 93.8777 126.711L101.842 127.974L117.529 123.534C126.141 121.084 142.07 116.605 152.905 113.542C163.7 110.48 172.675 107.953 172.837 107.953C172.958 107.953 173.039 109.37 172.958 111.092L172.837 114.27L161.921 117.332C155.937 119.055 151.045 120.624 151.086 120.816C151.207 121.466 152.541 126.137 152.622 126.252C152.784 126.405 177.163 119.514 178.133 119.016C179.629 118.289 179.831 117.255 179.548 111.475C179.346 106.805 179.387 106.001 179.912 105.886C180.236 105.771 182.985 105.005 185.977 104.125C191.071 102.632 191.556 102.402 193.335 100.68C199.278 94.8609 195.073 85.2906 186.543 85.4055C184.642 85.4055 175.627 87.8555 140.291 97.8851ZM188.685 92.3344C189.817 93.368 189.939 95.3969 188.888 96.3922C188.483 96.775 186.623 97.5406 184.723 98.1148C179.023 99.7609 179.265 99.7609 178.942 98.3445C178.821 97.6937 178.699 96.3156 178.699 95.282V93.4445L181.853 92.4875C185.855 91.3008 187.472 91.2625 188.685 92.3344ZM172.433 98.2297C172.594 99.7992 172.594 101.254 172.392 101.445C172.028 101.713 123.351 115.609 122.623 115.609C122.3 115.609 120.4 110.212 120.642 109.982C120.763 109.867 171.503 95.3969 171.907 95.3586C172.028 95.3203 172.271 96.6219 172.433 98.2297ZM115.225 114.499C115.71 116.03 115.952 117.37 115.75 117.523C115.588 117.677 112.233 118.672 108.352 119.782L101.236 121.773L98.0824 121.16C96.3035 120.854 94.848 120.548 94.7672 120.471C94.6863 120.395 95.6971 119.361 96.9908 118.136L99.3762 115.916L106.371 113.887C110.252 112.777 113.607 111.82 113.89 111.82C114.133 111.781 114.739 113.006 115.225 114.499Z" fill="#294B69"/>
<path d="M10.7139 86.707L9.70312 87.6258V137.812V187.999L10.7139 188.918L11.6842 189.875H71.1563H130.628L131.599 188.918L132.609 187.999V162.312V136.626L131.599 135.707L130.628 134.75H102.489H74.3906V111.207V87.6258L73.3799 86.707L72.4096 85.75H42.0469H11.6842L10.7139 86.707ZM29.1094 100.105C29.1094 108.374 29.1094 108.374 30.1201 109.293L31.0904 110.25H42.0469H53.0033L53.9736 109.293C54.9844 108.374 54.9844 108.374 54.9844 100.105V91.875H61.4531H67.9219V113.312V134.75H42.0469H16.1719V113.312V91.875H22.6406H29.1094V100.105ZM48.5156 98V104.125H42.0469H35.5781V98V91.875H42.0469H48.5156V98ZM29.1094 149.105C29.1094 157.374 29.1094 157.374 30.1201 158.293L31.0904 159.25H42.0469H53.0033L53.9736 158.293C54.9844 157.374 54.9844 157.374 54.9844 149.105V140.875H61.4531H67.9219V162.312V183.75H42.0469H16.1719V162.312V140.875H22.6406H29.1094V149.105ZM48.5156 147V153.125H42.0469H35.5781V147V140.875H42.0469H48.5156V147ZM87.3281 149.105C87.3281 157.374 87.3281 157.374 88.3389 158.293L89.3092 159.25H100.266H111.222L112.192 158.293C113.203 157.374 113.203 157.374 113.203 149.105V140.875H119.672H126.141V162.312V183.75H100.266H74.3906V162.312V140.875H80.8594H87.3281V149.105ZM106.734 147V153.125H100.266H93.7969V147V140.875H100.266H106.734V147Z" fill="#294B69"/>
<path d="M54.9844 125.562V128.625H58.2188H61.4531V125.562V122.5H58.2188H54.9844V125.562Z" fill="#294B69"/>
<path d="M54.9844 174.562V177.625H58.2188H61.4531V174.562V171.5H58.2188H54.9844V174.562Z" fill="#294B69"/>
<path d="M113.203 174.562V177.625H116.438H119.672V174.562V171.5H116.438H113.203V174.562Z" fill="#294B69"/>
<path d="M164.872 143.516C164.751 157.91 164.711 158.484 163.902 159.48C163.457 160.054 162.568 160.896 161.961 161.317C160.91 162.083 160.223 162.121 149.954 162.236L139.078 162.351V165.413V168.476L150.52 168.361L161.921 168.246L164.468 166.945C167.298 165.49 168.511 164.303 170.128 161.394L171.22 159.441L171.341 144.014L171.462 128.625H168.228H164.994L164.872 143.516Z" fill="#294B69"/>
<path d="M152.016 140.875V150.062H145.547H139.078V153.125V156.188H147.771C156.503 156.188 156.503 156.188 157.474 155.23L158.484 154.312V142.98V131.688H155.25H152.016V140.875Z" fill="#294B69"/>
</svg>
