<svg width="24" height="24" viewBox="0 0 24 24" fill="none" xmlns="http://www.w3.org/2000/svg">
<path d="M5.2031 1.99688C4.80935 2.07657 4.12967 2.41876 3.77342 2.70469C3.01404 3.31876 2.55467 4.22813 2.49842 5.22657C2.46092 5.87813 2.55935 6.34688 2.86873 6.98438C3.07498 7.41094 3.15935 7.52344 3.53435 7.89844C3.8906 8.25469 4.03123 8.36251 4.40623 8.54532C4.97342 8.82188 5.37654 8.92032 5.97654 8.92032C6.61404 8.92032 7.20467 8.77501 7.66873 8.50782C7.85154 8.40001 7.8656 8.37657 7.96873 7.98282C8.17498 7.18594 8.69998 6.30938 9.26717 5.82657L9.52967 5.60157L9.50154 5.17969C9.43592 4.21876 8.97185 3.30938 8.22654 2.70469C7.8656 2.40938 7.19529 2.08126 6.77342 1.99219C6.3656 1.90782 5.60623 1.90782 5.2031 1.99688Z" fill="#959895"/>
<path d="M17.2031 1.99219C16.8047 2.08126 16.1297 2.41876 15.7734 2.70469C15.0703 3.27657 14.5969 4.15782 14.5031 5.08594L14.475 5.37188L14.6765 5.50782C15.5719 6.09376 16.3265 7.30782 16.4765 8.37657C16.5047 8.60157 16.5187 8.62032 16.7015 8.69063C17.1375 8.85469 17.5125 8.92032 18 8.92032C18.6234 8.92032 19.0172 8.82657 19.5937 8.54532C19.9687 8.36251 20.1094 8.25469 20.4656 7.89844C20.8406 7.52344 20.925 7.41094 21.1312 6.98438C21.4406 6.34688 21.539 5.87813 21.5015 5.22657C21.4172 3.73594 20.4328 2.49376 18.9797 2.03907C18.6281 1.92657 17.6109 1.89844 17.2031 1.99219Z" fill="#959895"/>
<path d="M11.5922 5.57812C10.7297 5.73281 9.91875 6.225 9.39844 6.91406C9.10313 7.30781 8.95312 7.59375 8.80313 8.0625C8.71406 8.3625 8.69531 8.5125 8.69531 9.07031C8.69531 9.79218 8.76094 10.0687 9.05625 10.6547C10.0594 12.6422 12.7219 13.1906 14.4188 11.7562C15.7172 10.6594 16.0594 8.89687 15.2672 7.38281C15.1219 7.10156 14.9625 6.9 14.6484 6.58593C14.175 6.1125 13.7297 5.84531 13.125 5.67187C12.7219 5.55937 11.9672 5.5125 11.5922 5.57812Z" fill="#959895"/>
<path d="M3.60469 9.28125C1.82813 9.65625 0.45938 11.0391 0.0937546 12.8297C0.00469206 13.275 4.56627e-06 13.4437 0.00937957 15.3562L0.0234421 17.4047L0.726567 17.6062C1.51407 17.8359 2.69063 18.0984 3.39844 18.2109C3.86719 18.2859 5.04376 18.4219 5.23126 18.4219C5.32969 18.4219 5.33438 18.4031 5.35782 17.4469C5.37657 16.5984 5.39532 16.4156 5.50313 16.0078C5.73751 15.1125 6.30938 14.1328 6.97032 13.4906C7.48594 12.9891 8.36719 12.45 8.94376 12.2766C9.05157 12.2437 9.14063 12.2062 9.14063 12.1875C9.14063 12.1734 9.07501 12.0984 8.99532 12.0187C8.43751 11.4891 7.94063 10.3969 7.84688 9.4875L7.81407 9.1875L5.91094 9.19219C4.26094 9.19219 3.95625 9.20625 3.60469 9.28125Z" fill="#959895"/>
<path d="M16.5281 9.29063C16.5141 9.35157 16.4906 9.51563 16.4766 9.65625C16.3969 10.3641 16.0313 11.2031 15.5344 11.8172C15.3656 12.0281 15.2344 12.2016 15.2438 12.2109C15.2531 12.2156 15.3797 12.2672 15.525 12.3188C16.7813 12.7828 17.8313 13.7297 18.4453 14.9531C18.8531 15.7688 18.975 16.3266 19.0172 17.5641C19.0453 18.45 19.0453 18.4688 19.1438 18.4453C19.2 18.4359 19.4531 18.4125 19.7109 18.3984C21.0891 18.3094 22.6688 17.9484 23.6391 17.4984L24 17.3297V15.3141C24 13.4719 23.9906 13.2656 23.9016 12.8297C23.5406 11.025 22.1672 9.64688 20.3719 9.27657C20.0016 9.20156 19.725 9.1875 18.2484 9.1875H16.5469L16.5281 9.29063Z" fill="#959895"/>
<path d="M10.2047 12.8484C9.07036 12.9656 7.95474 13.5656 7.22349 14.4469C6.8813 14.8547 6.45942 15.6703 6.3188 16.1953C6.22036 16.5516 6.21567 16.6781 6.19692 18.8016L6.18286 21.0328L6.75942 21.2016C7.98755 21.5625 9.02349 21.7828 10.1719 21.9375C11.1047 22.0641 13.1579 22.1156 13.9875 22.0359C15.5391 21.8813 16.875 21.5672 17.8032 21.1359L18.1969 20.9531L18.1735 18.8344C18.15 16.4719 18.136 16.3547 17.8266 15.6094C17.1704 14.0484 15.7641 13.0172 14.0672 12.8438C13.5094 12.7875 10.7438 12.7922 10.2047 12.8484Z" fill="#959895"/>
</svg>
