<svg width="192" height="192" viewBox="0 0 192 192" fill="none" xmlns="http://www.w3.org/2000/svg">
<path d="M41.6251 15.975C38.4751 16.6125 33.0376 19.35 30.1876 21.6375C24.1126 26.55 20.4376 33.825 19.9876 41.8125C19.6876 47.025 20.4751 50.775 22.9501 55.875C24.6001 59.2875 25.2751 60.1875 28.2751 63.1875C31.1251 66.0375 32.2501 66.9 35.2501 68.3625C39.7876 70.575 43.0126 71.3625 47.8126 71.3625C52.9126 71.3625 57.6376 70.2 61.3501 68.0625C62.8126 67.2 62.9251 67.0125 63.7501 63.8625C65.4001 57.4875 69.6001 50.475 74.1376 46.6125L76.2376 44.8125L76.0126 41.4375C75.4876 33.75 71.7751 26.475 65.8126 21.6375C62.9251 19.275 57.5626 16.65 54.1876 15.9375C50.9251 15.2625 44.8501 15.2625 41.6251 15.975Z" fill="#294B69"/>
<path d="M137.625 15.9375C134.438 16.65 129.038 19.35 126.188 21.6375C120.563 26.2125 116.775 33.2625 116.025 40.6875L115.8 42.975L117.413 44.0625C124.575 48.75 130.613 58.4625 131.813 67.0125C132.038 68.8125 132.15 68.9625 133.613 69.525C137.1 70.8375 140.1 71.3625 144 71.3625C148.988 71.3625 152.138 70.6125 156.75 68.3625C159.75 66.9 160.875 66.0375 163.725 63.1875C166.725 60.1875 167.4 59.2875 169.05 55.875C171.525 50.775 172.313 47.025 172.013 41.8125C171.338 29.8875 163.463 19.95 151.838 16.3125C149.025 15.4125 140.888 15.1875 137.625 15.9375Z" fill="#294B69"/>
<path d="M92.7375 44.625C85.8375 45.8625 79.35 49.8 75.1875 55.3125C72.825 58.4625 71.625 60.75 70.425 64.5C69.7125 66.9 69.5625 68.1 69.5625 72.5625C69.5625 78.3375 70.0875 80.55 72.45 85.2375C80.475 101.137 101.775 105.525 115.35 94.05C125.738 85.275 128.475 71.175 122.138 59.0625C120.975 56.8125 119.7 55.2 117.188 52.6875C113.4 48.9 109.838 46.7625 105 45.375C101.775 44.475 95.7375 44.1 92.7375 44.625Z" fill="#294B69"/>
<path d="M28.8375 74.25C14.625 77.25 3.67504 88.3125 0.750037 102.637C0.0375365 106.2 3.65302e-05 107.55 0.0750365 122.85L0.187537 139.237L5.81254 140.85C12.1125 142.687 21.525 144.787 27.1875 145.687C30.9375 146.287 40.35 147.375 41.85 147.375C42.6375 147.375 42.675 147.225 42.8625 139.575C43.0125 132.787 43.1625 131.325 44.025 128.062C45.9 120.9 50.475 113.062 55.7625 107.925C59.8875 103.912 66.9375 99.6 71.55 98.2125C72.4126 97.95 73.125 97.65 73.125 97.5C73.125 97.3875 72.6001 96.7875 71.9625 96.15C67.5 91.9125 63.525 83.175 62.775 75.9L62.5125 73.5L47.2875 73.5375C34.0875 73.5375 31.65 73.65 28.8375 74.25Z" fill="#294B69"/>
<path d="M132.225 74.325C132.113 74.8125 131.925 76.125 131.813 77.25C131.175 82.9125 128.25 89.625 124.275 94.5375C122.925 96.225 121.875 97.6125 121.95 97.6875C122.025 97.725 123.038 98.1375 124.2 98.55C134.25 102.262 142.65 109.837 147.563 119.625C150.825 126.15 151.8 130.612 152.138 140.512C152.363 147.6 152.363 147.75 153.15 147.562C153.6 147.487 155.625 147.3 157.688 147.187C168.713 146.475 181.35 143.587 189.113 139.987L192 138.637V122.512C192 107.775 191.925 106.125 191.213 102.637C188.325 88.2 177.338 77.175 162.975 74.2125C160.013 73.6125 157.8 73.5 145.988 73.5H132.375L132.225 74.325Z" fill="#294B69"/>
<path d="M81.6376 102.788C72.5626 103.725 63.6376 108.525 57.7876 115.575C55.0501 118.838 51.6751 125.363 50.5501 129.562C49.7626 132.413 49.7251 133.425 49.5751 150.413L49.4626 168.263L54.0751 169.613C63.9001 172.5 72.1876 174.263 81.3751 175.5C88.8376 176.513 105.263 176.925 111.9 176.288C124.313 175.05 135 172.538 142.425 169.088L145.575 167.625L145.388 150.675C145.2 131.775 145.088 130.838 142.613 124.875C137.363 112.388 126.113 104.138 112.538 102.75C108.075 102.3 85.9501 102.338 81.6376 102.788Z" fill="#294B69"/>
</svg>
