<svg width="29" height="22" viewBox="0 0 29 22" fill="none" xmlns="http://www.w3.org/2000/svg">
<path d="M3.54097 0.429674C2.95972 0.582018 2.4814 0.968737 2.21499 1.5078L2.05757 1.83006L2.0394 3.92186L2.02124 6.01952H1.65796C1.22202 6.01952 1.10093 6.07225 0.997998 6.31249C0.937451 6.44725 0.937451 6.52342 0.991943 6.65819C1.08882 6.87499 1.28257 6.95702 1.69429 6.95702H2.0273V8.74413V10.5312H1.63374C1.28862 10.5312 1.21597 10.5488 1.08882 10.6777C0.889014 10.8652 0.889014 11.1348 1.08882 11.3223C1.21597 11.4512 1.28862 11.4687 1.63374 11.4687H2.0273V13.2558V15.043H1.69429C1.28257 15.043 1.08882 15.125 0.991943 15.3418C0.937451 15.4765 0.937451 15.5527 0.997998 15.6875C1.10093 15.9277 1.22202 15.9805 1.65796 15.9805H2.0273V18.0019C2.0273 20.416 2.03335 20.4629 2.65698 21.0547C3.323 21.6875 2.54194 21.6348 10.9519 21.6523C17.4183 21.664 18.3144 21.6582 18.6414 21.5762C19.2468 21.4238 19.6888 21.084 19.9976 20.5215L20.1611 20.2285L20.1793 17.7793L20.1974 15.3359L20.046 15.1894C19.8523 15.0019 19.6404 15.0019 19.4224 15.1836L19.2529 15.3242L19.2226 17.6914L19.1923 20.0644L19.0228 20.2754C18.6656 20.7324 19.3437 20.6973 11.1033 20.6973H3.74683L3.49253 20.5332C3.0021 20.2226 2.99605 20.1816 2.99605 17.9433V15.9805H3.55913C4.09194 15.9805 4.13433 15.9922 4.27358 16.1328C4.47944 16.3496 4.70952 16.4492 4.99409 16.4492C5.85386 16.4492 6.27769 15.4473 5.66616 14.8613C5.28472 14.4922 4.74585 14.4805 4.33413 14.8437C4.10405 15.043 4.09194 15.043 3.54702 15.043H2.99605V13.2558V11.4687H3.55913C4.09194 11.4687 4.13433 11.4805 4.27358 11.6211C4.72163 12.0898 5.39976 12.0371 5.80542 11.5098C5.9023 11.3867 5.93257 11.2578 5.93257 11C5.93257 10.7422 5.9023 10.6133 5.80542 10.4902C5.39976 9.96288 4.72163 9.91014 4.27358 10.3789C4.13433 10.5195 4.09194 10.5312 3.55913 10.5312H2.99605V8.74413V6.95702H3.54702C4.09194 6.95702 4.10405 6.95702 4.33413 7.15624C4.74585 7.51952 5.28472 7.5078 5.66616 7.13866C6.27769 6.55272 5.85386 5.55077 4.99409 5.55077C4.70952 5.55077 4.47944 5.65038 4.27358 5.86717C4.13433 6.0078 4.09194 6.01952 3.55913 6.01952H2.99605V4.05663C2.99605 1.81835 3.0021 1.77733 3.49253 1.46678L3.74683 1.30272H11.1033C19.3437 1.30272 18.6656 1.26756 19.0228 1.7246L19.1923 1.93553L19.2226 3.83983L19.2529 5.73827L19.4285 5.88475C19.6404 6.06053 19.9128 6.0371 20.0884 5.83202C20.1914 5.71483 20.1974 5.56249 20.1793 3.74022L20.1611 1.77147L19.9976 1.4785C19.6888 0.921862 19.2529 0.576159 18.6474 0.423815C18.1207 0.294909 4.05562 0.294909 3.54097 0.429674Z" fill="#959895"/>
<path d="M25.4953 2.80859C25.3439 2.84961 25.1138 3.00781 24.8293 3.26562L24.3994 3.66406L24.0967 3.59961C23.8545 3.55273 23.7213 3.55859 23.4306 3.64062L23.0674 3.74023L18.49 8.17578L13.9187 12.6113L13.0226 14.2109C12.5322 15.0898 12.1144 15.8984 12.0963 16.0039C12.0599 16.2441 12.1629 16.5723 12.3263 16.7188C12.4414 16.8184 12.4414 16.8242 12.2476 17.0176L12.0539 17.2109H9.89236C7.83377 17.2109 7.73084 17.2168 7.57947 17.3281C7.50076 17.3926 7.40994 17.5098 7.39178 17.5918C7.34939 17.7617 7.4826 18.0547 7.62791 18.1133C7.6824 18.1309 8.76619 18.1484 10.0316 18.1484C12.2597 18.1484 12.3445 18.1426 12.5383 18.0254C12.6533 17.9609 12.8228 17.8145 12.9197 17.6973L13.0953 17.4922L13.3254 17.6562C13.501 17.7852 13.616 17.8262 13.8279 17.8262C14.0701 17.8262 14.3183 17.7148 15.7715 16.9531L17.4365 16.0801L18.8472 14.7266C20.0763 13.543 20.2519 13.3496 20.2519 13.1914C20.2519 12.9512 20.034 12.7578 19.7615 12.7578C19.5738 12.7578 19.4527 12.8574 18.4234 13.8535L17.2851 14.9551L16.1832 13.8828L15.0752 12.8164L17.497 10.4727L19.9189 8.12891L20.9906 9.16602C21.584 9.74023 22.0683 10.2324 22.0683 10.2617C22.0683 10.2969 21.7535 10.625 21.3721 11C20.6697 11.6914 20.6031 11.8027 20.7121 12.084C20.7545 12.1895 21.0451 12.3477 21.2025 12.3477C21.2631 12.3477 22.4861 11.2109 24.0179 9.72852L26.7244 7.10938L26.8818 7.25C27.0453 7.40234 27.1301 7.68945 27.0635 7.90625C27.0392 7.97656 26.0039 9.03125 24.7566 10.2383C22.2681 12.6582 22.3166 12.5996 22.6678 12.9395C22.8676 13.1328 22.9705 13.1445 23.2066 13.0273C23.4972 12.875 27.7355 8.70898 27.8808 8.42773C28.0625 8.07031 28.0988 7.63672 27.9777 7.22656C27.8869 6.93945 27.7961 6.81055 27.3541 6.36523L26.8334 5.84375L27.1482 5.52148C27.3238 5.3457 27.5054 5.09961 27.5599 4.98242C27.675 4.70703 27.6871 4.25 27.5781 3.93945C27.4812 3.6582 26.9121 3.06641 26.5851 2.90234C26.3006 2.76172 25.8162 2.7207 25.4953 2.80859ZM26.2521 3.81055C26.5428 3.99805 26.7486 4.30859 26.7002 4.49609C26.682 4.57812 26.5428 4.75977 26.3914 4.90625L26.125 5.16992L25.6406 4.70117L25.1502 4.23242L25.4529 3.95117C25.792 3.63477 25.9433 3.61133 26.2521 3.81055ZM25.0472 5.47461L26.0644 6.45898L25.0654 7.42578L24.0664 8.39258L22.9584 7.32031L21.8564 6.25391L22.7707 5.375C23.5215 4.6543 23.7092 4.49609 23.8545 4.49609C23.9998 4.49609 24.2056 4.66602 25.0472 5.47461ZM22.2803 8.01172L23.3701 9.06641L23.0795 9.3418L22.7949 9.62305L21.6929 8.55664L20.5849 7.48438L20.8574 7.2207C21.0027 7.07422 21.142 6.95703 21.1601 6.95703C21.1783 6.95703 21.6808 7.43164 22.2803 8.01172ZM15.499 14.5742C16.0258 15.084 16.4496 15.5176 16.4375 15.5293C16.4193 15.541 15.8381 15.8516 15.1478 16.2148L13.8824 16.877L13.4949 16.502C13.283 16.2969 13.1074 16.1094 13.1074 16.0859C13.1074 16.0098 14.4576 13.6367 14.4939 13.6367C14.5181 13.6367 14.9662 14.0586 15.499 14.5742Z" fill="#363936" fill-opacity="0.537255"/>
<path d="M7.53104 2.9668C7.34335 3.11328 7.33729 3.45312 7.52499 3.63477C7.65819 3.76367 7.68241 3.76367 9.48065 3.76367H11.3031L11.4484 3.59961C11.624 3.40039 11.6361 3.21289 11.4666 3.00781L11.3455 2.85547H9.50487C7.8035 2.85547 7.66425 2.86133 7.53104 2.9668Z" fill="#959895"/>
<path d="M7.60966 5.12305C7.48251 5.16992 7.34931 5.48047 7.39169 5.63867C7.40986 5.7207 7.50068 5.83789 7.57939 5.90234C7.73076 6.01367 7.83974 6.01953 11.6966 6.01953C15.0509 6.01953 15.6806 6.00781 15.8259 5.93164C16.1165 5.79102 16.1649 5.45703 15.9227 5.22852L15.7774 5.08203L11.7329 5.08789C9.51083 5.08789 7.65204 5.10547 7.60966 5.12305Z" fill="#959895"/>
<path d="M7.65812 8.49219C7.34933 8.65039 7.28879 9.04297 7.54914 9.25391C7.65207 9.34766 7.80344 9.35938 8.5966 9.35938H9.52902L9.65011 9.20703C9.81965 9.00195 9.80754 8.81445 9.63195 8.61523C9.48664 8.45117 9.48058 8.45117 8.64504 8.43359C8.05168 8.42188 7.76711 8.43945 7.65812 8.49219Z" fill="#959895"/>
<path d="M11.073 8.48047C10.9035 8.54492 10.7461 8.76172 10.7461 8.92578C10.7461 8.99609 10.8006 9.11914 10.8732 9.20703L10.9943 9.35938H13.4041H15.8139L15.941 9.22461C16.1832 8.97266 16.0924 8.59766 15.7654 8.48633C15.5293 8.41016 11.2668 8.4043 11.073 8.48047Z" fill="#959895"/>
<path d="M7.67632 11.4102C7.47046 11.4922 7.33726 11.7266 7.3857 11.9375C7.46441 12.2949 7.42808 12.2891 10.2798 12.2891H12.8712L13.0166 12.1426C13.2164 11.9492 13.2103 11.7324 12.9923 11.5215L12.8167 11.3516L10.3101 11.3574C8.9357 11.3574 7.74898 11.3809 7.67632 11.4102Z" fill="#959895"/>
<path d="M7.57947 14.3984C7.50076 14.4629 7.40994 14.5801 7.39178 14.6621C7.34939 14.832 7.4826 15.125 7.62791 15.1836C7.6824 15.2012 8.34236 15.2188 9.08709 15.2188H10.4494L10.5947 15.0723C10.7945 14.8789 10.7885 14.6621 10.5705 14.4512L10.3949 14.2812H9.06287C7.82771 14.2812 7.72478 14.2871 7.57947 14.3984Z" fill="#959895"/>
</svg>
