<svg width="192" height="192" viewBox="0 0 192 192" fill="none" xmlns="http://www.w3.org/2000/svg">
<g clip-path="url(#clip0_262_770)">
<path d="M191.64 81.696L185.416 32.936C183.008 14.16 166.92 0 148 0H43.9119C24.9839 0 8.90393 14.16 6.50393 32.936L0.271931 81.696C-0.960069 91.376 2.03193 101.136 8.47993 108.464C14.9359 115.8 24.2399 120 33.9999 120H87.9919V128C87.9919 142.616 75.7039 143.944 71.9919 144C58.7599 144 47.9919 154.768 47.9919 168C47.9919 181.232 58.7599 192 71.9919 192H119.992C133.224 192 143.992 181.232 143.992 168C143.992 155.048 133.68 144.464 120.832 144.016C117.92 143.392 103.992 139.8 103.992 128V120H157.904C167.672 120 176.968 115.8 183.416 108.472C189.872 101.136 192.864 91.384 191.624 81.696H191.64ZM120 160C124.416 160 128 163.592 128 168C128 172.408 124.416 176 120 176H71.9999C67.5839 176 63.9999 172.408 63.9999 168C63.9999 163.592 67.5839 160 71.9999 160C79.8639 160 90.0799 156.816 96.8239 148.976C103.552 155.56 112.056 159.136 120 160ZM171.424 97.896C168.008 101.776 163.088 104 157.92 104H34.0079C28.8399 104 23.9039 101.776 20.4959 97.888C17.0799 94.008 15.4959 88.848 16.1519 83.72L22.3839 34.96C23.7599 24.152 33.0159 16 43.9119 16H148C158.896 16 168.16 24.152 169.536 34.96L175.76 83.72C176.416 88.848 174.84 94.016 171.424 97.896Z" fill="#294B69"/>
</g>
<defs>
<clipPath id="clip0_262_770">
<rect width="192" height="192" fill="white"/>
</clipPath>
</defs>
</svg>
