<svg width="24" height="24" viewBox="0 0 24 24" fill="none" xmlns="http://www.w3.org/2000/svg">
<g clip-path="url(#clip0_270_805)">
<path d="M23.955 10.212L23.177 4.117C22.876 1.77 20.865 0 18.5 0H5.48899C3.12299 0 1.11299 1.77 0.812991 4.117L0.0339913 10.212C-0.120009 11.422 0.253991 12.642 1.05999 13.558C1.86699 14.475 3.02999 15 4.24999 15H10.999V16C10.999 17.827 9.46299 17.993 8.99899 18C7.34499 18 5.99899 19.346 5.99899 21C5.99899 22.654 7.34499 24 8.99899 24H14.999C16.653 24 17.999 22.654 17.999 21C17.999 19.381 16.71 18.058 15.104 18.002C14.74 17.924 12.999 17.475 12.999 16V15H19.738C20.959 15 22.121 14.475 22.927 13.559C23.734 12.642 24.108 11.423 23.953 10.212H23.955ZM15 20C15.552 20 16 20.449 16 21C16 21.551 15.552 22 15 22H8.99999C8.44799 22 7.99999 21.551 7.99999 21C7.99999 20.449 8.44799 20 8.99999 20C9.98299 20 11.26 19.602 12.103 18.622C12.944 19.445 14.007 19.892 15 20ZM21.428 12.237C21.001 12.722 20.386 13 19.74 13H4.25099C3.60499 13 2.98799 12.722 2.56199 12.236C2.13499 11.751 1.93699 11.106 2.01899 10.465L2.79799 4.37C2.96999 3.019 4.12699 2 5.48899 2H18.5C19.862 2 21.02 3.019 21.192 4.37L21.97 10.465C22.052 11.106 21.855 11.752 21.428 12.237Z" fill="#959895"/>
</g>
<defs>
<clipPath id="clip0_270_805">
<rect width="24" height="24" fill="white"/>
</clipPath>
</defs>
</svg>
