<svg width="30" height="32" viewBox="0 0 30 32" fill="none" xmlns="http://www.w3.org/2000/svg">
<path d="M15.0854 1.09812e-08C16.3923 -8.55592e-05 17.6497 0.499932 18.5997 1.39748C19.5496 2.29503 20.1201 3.52206 20.1941 4.82687L20.202 5.11654H28.4671C28.7663 5.11663 29.0543 5.23028 29.2729 5.43451C29.4915 5.63875 29.6244 5.91834 29.6448 6.2168C29.6652 6.51527 29.5715 6.81034 29.3827 7.04241C29.1939 7.27447 28.9241 7.42623 28.6277 7.467L28.4671 7.47802H27.214L25.1989 27.9757C25.0979 28.9976 24.637 29.9503 23.8984 30.6638C23.1599 31.3772 22.1918 31.805 21.167 31.8706L20.8899 31.88H9.2809C8.25359 31.88 7.25977 31.5146 6.47704 30.8493C5.69431 30.1839 5.17368 29.2619 5.00819 28.248L4.97198 27.9741L2.95528 7.47802H1.70369C1.41836 7.47801 1.14269 7.37468 0.927659 7.18714C0.712625 6.9996 0.572774 6.74054 0.533969 6.45786L0.522949 6.29728C0.522961 6.01196 0.626292 5.73629 0.813832 5.52125C1.00137 5.30622 1.26043 5.16637 1.54311 5.12756L1.70369 5.11654H9.96888C9.96887 3.75955 10.5079 2.45814 11.4675 1.4986C12.427 0.539063 13.7284 1.09812e-08 15.0854 1.09812e-08ZM24.8415 7.47802H5.32778L7.32244 27.7427C7.36661 28.1948 7.56587 28.6178 7.8864 28.9398C8.20693 29.2617 8.62899 29.4629 9.08096 29.5091L9.2809 29.5185H20.8899C21.8345 29.5185 22.6359 28.8494 22.8185 27.941L22.85 27.7427L24.8399 7.47802H24.8415ZM17.8405 11.8074C18.1258 11.8074 18.4015 11.9107 18.6165 12.0983C18.8315 12.2858 18.9714 12.5449 19.0102 12.8276L19.0212 12.9881V24.0084C19.0211 24.3076 18.9075 24.5955 18.7033 24.8141C18.499 25.0327 18.2194 25.1656 17.921 25.186C17.6225 25.2064 17.3274 25.1128 17.0954 24.924C16.8633 24.7352 16.7115 24.4653 16.6708 24.169L16.6597 24.0084V12.9881C16.6597 12.675 16.7841 12.3747 17.0056 12.1532C17.227 11.9318 17.5273 11.8074 17.8405 11.8074ZM12.3304 11.8074C12.6157 11.8074 12.8914 11.9107 13.1064 12.0983C13.3214 12.2858 13.4613 12.5449 13.5001 12.8276L13.5111 12.9881V24.0084C13.511 24.3076 13.3974 24.5955 13.1931 24.8141C12.9889 25.0327 12.7093 25.1656 12.4108 25.186C12.1124 25.2064 11.8173 25.1128 11.5852 24.924C11.3532 24.7352 11.2014 24.4653 11.1606 24.169L11.1496 24.0084V12.9881C11.1496 12.675 11.274 12.3747 11.4954 12.1532C11.7169 11.9318 12.0172 11.8074 12.3304 11.8074ZM15.0854 2.36148C14.394 2.36151 13.7279 2.62151 13.2192 3.08989C12.7106 3.55826 12.3967 4.20076 12.3398 4.88984L12.3304 5.11654H17.8405C17.8405 4.38586 17.5502 3.68509 17.0335 3.16842C16.5169 2.65175 15.8161 2.36148 15.0854 2.36148Z" fill="#294B69"/>
</svg>
