<svg width="24" height="24" viewBox="0 0 24 24" fill="none" xmlns="http://www.w3.org/2000/svg">
<g clip-path="url(#clip0_51_333)">
<path d="M1.79536 0.0703144C0.942236 0.300001 0.295361 0.956251 0.0703613 1.81406C-0.0374512 2.21719 -0.0374512 19.0172 0.0703613 19.4203C0.154736 19.7484 0.300049 19.9828 0.571924 20.2313C0.843799 20.4844 1.20005 20.6156 1.72974 20.6531L2.1563 20.6859V21.8719V23.0578L1.21411 23.0719L0.271924 23.0859L0.135986 23.2406C-0.0421387 23.4375 -0.0421387 23.625 0.135986 23.8219L0.271924 23.9766L11.9719 23.9906L23.6719 24L23.8219 23.8641C23.9485 23.7516 23.9766 23.6953 23.9766 23.5313C23.9766 23.3672 23.9485 23.3109 23.8219 23.1984L23.6719 23.0625H22.7579H21.8438V21.8719V20.6859L22.2704 20.6531C22.8 20.6156 23.1563 20.4844 23.4282 20.2313C23.7001 19.9828 23.8454 19.7484 23.9297 19.4203C24.0375 19.0172 24.0375 2.21719 23.9297 1.81406C23.7047 0.946877 23.0532 0.295315 22.186 0.0703144C21.7922 -0.0328102 2.17505 -0.0281239 1.79536 0.0703144ZM22.2235 1.05938C22.5047 1.19063 22.8094 1.49531 22.936 1.77656C23.0204 1.95938 23.0391 2.1 23.0532 2.68125L23.0719 3.375H12.0047H0.937549V2.775C0.937549 2.38594 0.960986 2.09063 1.00317 1.95C1.13911 1.50938 1.45786 1.17188 1.89849 1.02188C2.1188 0.946877 2.74224 0.942188 12.0704 0.951565L22.0079 0.960939L22.2235 1.05938ZM23.0625 11.7281C23.0625 18.6984 23.0579 19.1578 22.9782 19.3125C22.8422 19.5891 22.6407 19.6875 22.2141 19.6875H21.8438V16.0406C21.8438 12.5156 21.8391 12.3938 21.75 12.2484C21.6891 12.15 21.6047 12.0844 21.4829 12.0516C21.2438 11.9859 18.5063 11.9859 18.2672 12.0516C18.1454 12.0844 18.061 12.15 18 12.2484C17.911 12.3891 17.9063 12.4922 17.9063 13.6969V15L18.0375 15.1406C18.1172 15.2297 18.225 15.2953 18.3329 15.3094C18.4782 15.3328 18.5297 15.3141 18.661 15.1969L18.8204 15.0563L18.8344 14.0203L18.8485 12.9844H19.8797H20.9063V18.0234V23.0625H19.875H18.8438L18.8344 20.4375L18.8204 17.8125L18.6938 17.6906C18.5204 17.5172 18.2297 17.5172 18.0563 17.6906L17.9297 17.8125L17.9157 20.4375L17.9063 23.0625H17.25H16.5938L16.5844 20.0109L16.5704 16.9594L16.4157 16.8234L16.261 16.6828L14.5969 16.6969L12.9282 16.7109L12.7922 16.8656L12.6563 17.0156V20.0391V23.0625H12H11.3438V18.0984C11.3438 15.0563 11.325 13.0875 11.2969 13.0125C11.2735 12.9469 11.1985 12.8578 11.1235 12.8109C11.0063 12.7359 10.8563 12.7266 9.37505 12.7266C7.8938 12.7266 7.7438 12.7359 7.62661 12.8109C7.55161 12.8578 7.47661 12.9469 7.45317 13.0125C7.42505 13.0875 7.4063 15.0563 7.4063 18.0984V23.0625H6.75005H6.09849L6.08442 20.6203L6.07036 18.1781L5.91567 18.0422L5.76099 17.9016L4.10161 17.9156L2.43755 17.9297L2.31099 18.0609C2.17974 18.1875 2.17974 18.1922 2.16567 18.9375L2.15161 19.6875H1.78599C1.35942 19.6875 1.15786 19.5891 1.02192 19.3125C0.942236 19.1578 0.937549 18.6984 0.937549 11.7281V4.3125H12H23.0625V11.7281ZM10.4063 18.3516V23.0625H9.37505H8.3438V18.3516V13.6406H9.37505H10.4063V18.3516ZM15.6563 20.3438V23.0625H14.625H13.5938V20.3438V17.625H14.625H15.6563V20.3438ZM5.1563 20.9531V23.0625H4.12505H3.0938V20.9531V18.8438H4.12505H5.1563V20.9531Z" fill="#959895"/>
<path d="M2.83596 1.72969C2.53596 1.85625 2.45627 2.24531 2.68596 2.47031C2.96721 2.75625 3.44534 2.55937 3.44534 2.15625C3.44534 1.84687 3.10784 1.6125 2.83596 1.72969Z" fill="#959895"/>
<path d="M4.71096 1.72969C4.41096 1.85625 4.33127 2.24531 4.56096 2.47031C4.84221 2.75625 5.32034 2.55937 5.32034 2.15625C5.32034 1.84687 4.98284 1.6125 4.71096 1.72969Z" fill="#959895"/>
<path d="M6.58596 1.72969C6.28596 1.85625 6.20627 2.24531 6.43596 2.47031C6.71721 2.75625 7.19534 2.55937 7.19534 2.15625C7.19534 1.84687 6.85784 1.6125 6.58596 1.72969Z" fill="#959895"/>
<path d="M10.2422 1.72969C9.94221 1.85625 9.86252 2.24531 10.0922 2.47031L10.2188 2.60156L15.6797 2.61562L21.136 2.625L21.2906 2.48906C21.4172 2.37656 21.4453 2.32031 21.4453 2.15625C21.4453 1.99219 21.4172 1.93594 21.2906 1.82344L21.1406 1.6875L15.736 1.69219C12.7688 1.69219 10.2938 1.71094 10.2422 1.72969Z" fill="#959895"/>
<path d="M2.46094 5.94844C2.31094 6.01406 2.20313 6.16406 2.17032 6.34219C2.14688 6.49219 2.16563 6.53437 2.31094 6.67969L2.47501 6.84375H3.75001H5.02501L5.18907 6.67969C5.33438 6.53437 5.35313 6.49219 5.32969 6.34219C5.31094 6.24844 5.24532 6.11719 5.17969 6.05156L5.06251 5.92969L3.80626 5.92031C3.11719 5.91562 2.51251 5.92969 2.46094 5.94844Z" fill="#959895"/>
<path d="M6.44541 5.94844C6.16416 6.06563 6.07509 6.46407 6.28134 6.67969C6.56728 6.98438 7.07822 6.7875 7.07822 6.375C7.07822 6.04688 6.75009 5.82657 6.44541 5.94844Z" fill="#959895"/>
<path d="M8.70479 6.42656C8.26885 6.52969 7.80479 6.90469 7.60322 7.32656C7.39229 7.75313 7.3876 8.36719 7.58447 8.77031L7.67354 8.94375L6.28604 10.3266L4.89854 11.7047L4.66885 11.6156C4.51416 11.5547 4.31729 11.5266 4.09229 11.5266C3.1501 11.5266 2.42822 12.2484 2.42822 13.1906C2.42822 13.6828 2.56885 14.0156 2.9251 14.3719C3.30479 14.7516 3.61885 14.8734 4.14854 14.85C5.05322 14.8125 5.71416 14.1656 5.75635 13.2656C5.77041 12.9938 5.75166 12.8484 5.67666 12.6328L5.57822 12.3516L6.94697 10.9781C8.24541 9.67969 8.32979 9.60469 8.46104 9.63281C9.19697 9.76875 9.24854 9.76875 9.60479 9.66094L9.95166 9.55313L11.5454 11.1469L13.1392 12.7406L13.0407 12.9703C12.6798 13.8141 13.0595 14.7797 13.9126 15.1781C14.1376 15.2813 14.2454 15.3047 14.5782 15.3C14.9157 15.3 15.0235 15.2813 15.2626 15.1688C16.0407 14.8172 16.4392 13.9172 16.172 13.1297L16.0735 12.8297L17.6579 11.2406L19.2423 9.65156L19.4298 9.68906C20.2735 9.85781 21.0282 9.50625 21.3892 8.77031C21.5251 8.49375 21.5392 8.41875 21.5392 8.0625C21.5345 7.72969 21.5157 7.61719 21.4032 7.37813C21.2438 7.01719 20.9204 6.70313 20.5548 6.52969C20.3157 6.41719 20.2126 6.39844 19.8751 6.39844C19.5376 6.39844 19.4345 6.41719 19.1954 6.52969C18.8251 6.70313 18.5063 7.01719 18.347 7.37813C18.2345 7.61719 18.2157 7.72969 18.211 8.0625C18.211 8.41875 18.2298 8.49844 18.3563 8.75156L18.497 9.04219L16.9454 10.5938L15.3892 12.1453L15.0892 12.0469C14.7563 11.9297 14.311 11.9391 14.0063 12.0656L13.847 12.1359L12.2204 10.5094L10.5985 8.88281L10.6876 8.625C10.8704 8.1 10.772 7.4625 10.4485 7.04531C10.036 6.52031 9.34229 6.27656 8.70479 6.42656ZM9.44541 7.40625C9.81572 7.58438 9.96572 8.10469 9.74072 8.4375C9.49697 8.79375 9.15479 8.89688 8.79385 8.72344C8.51729 8.5875 8.38135 8.36719 8.38135 8.0625C8.38135 7.49531 8.92979 7.15781 9.44541 7.40625ZM20.1704 7.37813C20.6579 7.57969 20.7704 8.19844 20.3907 8.57813C20.1892 8.77969 19.9829 8.84063 19.7063 8.79375C19.6032 8.77031 19.472 8.69063 19.3595 8.57813C18.7782 7.99688 19.411 7.05938 20.1704 7.37813ZM4.54229 12.6C4.93135 12.8859 4.9126 13.5328 4.50479 13.8094C4.03135 14.1328 3.36104 13.7719 3.36104 13.1953C3.36104 12.5953 4.05947 12.2438 4.54229 12.6ZM14.9907 13.0172C15.2298 13.1953 15.3048 13.3453 15.3048 13.6406C15.3048 13.9359 15.2298 14.0859 14.9813 14.2688C14.7938 14.4141 14.372 14.4047 14.1657 14.2594C13.9829 14.1281 13.8282 13.8422 13.8282 13.6406C13.8282 13.3641 14.0626 13.0359 14.3438 12.9234C14.4751 12.8672 14.8642 12.9234 14.9907 13.0172Z" fill="#959895"/>
<path d="M2.46094 8.19844C2.31094 8.26406 2.20313 8.41406 2.17032 8.59219C2.14688 8.74219 2.16563 8.78437 2.31094 8.92969L2.47501 9.09375H3.75001H5.02501L5.18907 8.92969C5.33438 8.78437 5.35313 8.74219 5.32969 8.59219C5.31094 8.49844 5.24532 8.36719 5.17969 8.30156L5.06251 8.17969L3.80626 8.17031C3.11719 8.16562 2.51251 8.17969 2.46094 8.19844Z" fill="#959895"/>
<path d="M18.0798 16.1906C17.6579 16.5844 18.1829 17.2359 18.6423 16.8938C18.9938 16.6313 18.811 16.0781 18.3751 16.0781C18.2579 16.0781 18.1641 16.1156 18.0798 16.1906Z" fill="#959895"/>
</g>
<defs>
<clipPath id="clip0_51_333">
<rect width="24" height="24" fill="white"/>
</clipPath>
</defs>
</svg>
