<svg width="26" height="25" viewBox="0 0 26 25" fill="none" xmlns="http://www.w3.org/2000/svg">
<path d="M12.3144 0.90332C12.157 1.0498 12.157 1.12305 12.3347 1.79199L12.482 2.33887L10.2882 2.35352L8.09956 2.36816L7.77964 2.53418C7.42417 2.71973 7.27183 2.87109 7.0687 3.24219L6.93159 3.49121L6.91636 6.82129L6.90112 10.1562H7.31245H7.7187L7.72886 6.88965C7.74409 3.67676 7.74409 3.61816 7.85073 3.48633C7.90659 3.41309 8.01831 3.30566 8.09448 3.25195C8.22651 3.1543 8.31284 3.14941 9.60269 3.13477L10.9687 3.12012V3.51562V3.90625H9.8769C8.78003 3.90625 8.78003 3.90625 8.65815 4.02832L8.5312 4.14551V7.15332V10.1562H8.93745H9.3437V7.42188V4.6875H14.2187H19.0937V7.8125V10.9375H19.5H19.9062V7.54395V4.14551L19.7792 4.02832C19.6574 3.90625 19.6574 3.90625 18.5605 3.90625H17.4687V3.51562V3.125H18.7636C20.221 3.125 20.3023 3.13965 20.546 3.44727L20.6933 3.62793L20.7085 7.08984L20.7187 10.5469H21.13H21.5363L21.521 7.0166L21.5058 3.49121L21.3687 3.24219C21.1656 2.87109 21.0132 2.71973 20.6578 2.53418L20.3378 2.36816L18.1492 2.35352L15.9554 2.33887L16.1027 1.79199C16.2804 1.12305 16.2804 1.0498 16.123 0.90332L16.0011 0.78125H14.2187H12.4363L12.3144 0.90332ZM15.1785 2.10938C15.0007 2.7832 15.0007 2.85645 15.1582 3.00293C15.275 3.12012 15.3054 3.125 15.9707 3.125H16.6562V3.51562V3.90625H14.2187H11.7812V3.51562V3.125H12.4667C13.132 3.125 13.1625 3.12012 13.2792 3.00293C13.4367 2.85645 13.4367 2.7832 13.2589 2.10938L13.1117 1.5625H14.2187H15.3257L15.1785 2.10938Z" fill="#959895"/>
<path d="M10.2832 5.59082C10.1562 5.708 10.1562 5.71777 10.1562 6.64062C10.1562 7.8955 10.0699 7.8125 11.375 7.8125C12.68 7.8125 12.5937 7.8955 12.5937 6.64062C12.5937 5.38574 12.68 5.46875 11.375 5.46875C10.4152 5.46875 10.405 5.46875 10.2832 5.59082ZM11.7812 6.64062V7.03125H11.375H10.9687V6.64062V6.25H11.375H11.7812V6.64062Z" fill="#959895"/>
<path d="M13.4062 5.85938V6.25H13.8125H14.2188V5.85938V5.46875H13.8125H13.4062V5.85938Z" fill="#959895"/>
<path d="M15.0312 5.85938V6.25H16.6562H18.2812V5.85938V5.46875H16.6562H15.0312V5.85938Z" fill="#959895"/>
<path d="M13.4062 7.42188V7.8125H15.8438H18.2812V7.42188V7.03125H15.8438H13.4062V7.42188Z" fill="#959895"/>
<path d="M10.2832 9.10644C10.1562 9.22363 10.1562 9.23339 10.1562 10.1562C10.1562 11.4111 10.0699 11.3281 11.375 11.3281C12.68 11.3281 12.5937 11.4111 12.5937 10.1562C12.5937 8.90136 12.68 8.98437 11.375 8.98437C10.4152 8.98437 10.405 8.98437 10.2832 9.10644ZM11.7812 10.1562V10.5469H11.375H10.9687V10.1562V9.76562H11.375H11.7812V10.1562Z" fill="#959895"/>
<path d="M13.4062 9.375V9.76562H13.8125H14.2188V9.375V8.98438H13.8125H13.4062V9.375Z" fill="#959895"/>
<path d="M15.0312 9.375V9.76562H16.6562H18.2812V9.375V8.98438H16.6562H15.0312V9.375Z" fill="#959895"/>
<path d="M13.4062 10.9375V11.3281H15.8438H18.2812V10.9375V10.5469H15.8438H13.4062V10.9375Z" fill="#959895"/>
<path d="M17.6211 12.4854L12.1113 14.0723L11.7559 14.3848C10.725 15.2783 10.5625 15.4492 10.5625 15.6152C10.5625 15.9229 10.6793 15.9766 11.7914 16.1621L12.7918 16.3232L14.7621 15.7568C15.8438 15.4443 17.8445 14.873 19.2055 14.4824C20.5613 14.0918 21.6887 13.7695 21.709 13.7695C21.7242 13.7695 21.7344 13.9502 21.7242 14.1699L21.709 14.5752L20.3379 14.9658C19.5863 15.1855 18.9719 15.3857 18.977 15.4102C18.9922 15.4932 19.1598 16.0889 19.1699 16.1035C19.1902 16.123 22.2523 15.2441 22.3742 15.1807C22.5621 15.0879 22.5875 14.9561 22.552 14.2188C22.5266 13.623 22.5316 13.5205 22.5977 13.5059C22.6383 13.4912 22.9836 13.3936 23.3594 13.2813C23.9992 13.0908 24.0602 13.0615 24.2836 12.8418C25.0301 12.0996 24.502 10.8789 23.4305 10.8936C23.1918 10.8936 22.0594 11.2061 17.6211 12.4854ZM23.6996 11.7773C23.8418 11.9092 23.857 12.168 23.725 12.2949C23.6742 12.3438 23.4406 12.4414 23.202 12.5146C22.4859 12.7246 22.5164 12.7246 22.4758 12.5439C22.4605 12.4609 22.4453 12.2852 22.4453 12.1533V11.9189L22.8414 11.7969C23.3441 11.6455 23.5473 11.6406 23.6996 11.7773ZM21.6582 12.5293C21.6785 12.7295 21.6785 12.915 21.6531 12.9395C21.6074 12.9736 15.4934 14.7461 15.402 14.7461C15.3613 14.7461 15.1227 14.0576 15.1531 14.0283C15.1684 14.0137 21.5414 12.168 21.5922 12.1631C21.6074 12.1582 21.6379 12.3242 21.6582 12.5293ZM14.4727 14.6045C14.5336 14.7998 14.5641 14.9707 14.5387 14.9902C14.5184 15.0098 14.0969 15.1367 13.6094 15.2783L12.7156 15.5322L12.3195 15.4541C12.0961 15.415 11.9133 15.376 11.9031 15.3662C11.893 15.3564 12.0199 15.2246 12.1824 15.0684L12.482 14.7852L13.3605 14.5264C13.848 14.3848 14.2695 14.2627 14.3051 14.2627C14.3355 14.2578 14.4117 14.4141 14.4727 14.6045Z" fill="#959895"/>
<path d="M1.3457 11.0596L1.21875 11.1768V17.5781V23.9795L1.3457 24.0967L1.46758 24.2188H8.9375H16.4074L16.5293 24.0967L16.6562 23.9795V20.7031V17.4268L16.5293 17.3096L16.4074 17.1875H12.873H9.34375V14.1846V11.1768L9.2168 11.0596L9.09492 10.9375H5.28125H1.46758L1.3457 11.0596ZM3.65625 12.7686C3.65625 13.8232 3.65625 13.8232 3.7832 13.9404L3.90508 14.0625H5.28125H6.65742L6.7793 13.9404C6.90625 13.8232 6.90625 13.8232 6.90625 12.7686V11.7188H7.71875H8.53125V14.4531V17.1875H5.28125H2.03125V14.4531V11.7188H2.84375H3.65625V12.7686ZM6.09375 12.5V13.2812H5.28125H4.46875V12.5V11.7188H5.28125H6.09375V12.5ZM3.65625 19.0186C3.65625 20.0732 3.65625 20.0732 3.7832 20.1904L3.90508 20.3125H5.28125H6.65742L6.7793 20.1904C6.90625 20.0732 6.90625 20.0732 6.90625 19.0186V17.9688H7.71875H8.53125V20.7031V23.4375H5.28125H2.03125V20.7031V17.9688H2.84375H3.65625V19.0186ZM6.09375 18.75V19.5312H5.28125H4.46875V18.75V17.9688H5.28125H6.09375V18.75ZM10.9688 19.0186C10.9688 20.0732 10.9688 20.0732 11.0957 20.1904L11.2176 20.3125H12.5938H13.9699L14.0918 20.1904C14.2188 20.0732 14.2188 20.0732 14.2188 19.0186V17.9688H15.0312H15.8437V20.7031V23.4375H12.5938H9.34375V20.7031V17.9688H10.1562H10.9688V19.0186ZM13.4062 18.75V19.5312H12.5938H11.7812V18.75V17.9688H12.5938H13.4062V18.75Z" fill="#959895"/>
<path d="M6.90625 16.0156V16.4062H7.3125H7.71875V16.0156V15.625H7.3125H6.90625V16.0156Z" fill="#959895"/>
<path d="M6.90625 22.2656V22.6562H7.3125H7.71875V22.2656V21.875H7.3125H6.90625V22.2656Z" fill="#959895"/>
<path d="M14.2188 22.2656V22.6562H14.625H15.0312V22.2656V21.875H14.625H14.2188V22.2656Z" fill="#959895"/>
<path d="M20.7086 18.3057C20.6934 20.1416 20.6883 20.2148 20.5867 20.3418C20.5309 20.415 20.4191 20.5225 20.343 20.5762C20.2109 20.6738 20.1246 20.6787 18.8348 20.6934L17.4688 20.708V21.0986V21.4893L18.9059 21.4746L20.3379 21.46L20.6578 21.2939C21.0133 21.1084 21.1656 20.957 21.3688 20.5859L21.5059 20.3369L21.5211 18.3691L21.5363 16.4062H21.1301H20.7238L20.7086 18.3057Z" fill="#959895"/>
<path d="M19.0938 17.9688V19.1406H18.2812H17.4688V19.5312V19.9219H18.5605C19.6574 19.9219 19.6574 19.9219 19.7793 19.7998L19.9062 19.6826V18.2373V16.7969H19.5H19.0938V17.9688Z" fill="#959895"/>
</svg>
